<svg xmlns="http://www.w3.org/2000/svg" width="1080" height="1080" viewBox="0 0 1080 1080" version="1.1"><path d="M 87.878 204.520 C 81.352 206.590, 75.502 212.575, 73.531 219.196 C 69.373 233.167, 63.336 271.029, 60.566 300.500 C 56.609 342.603, 56.321 373.624, 59.551 409.500 C 63.467 452.979, 71.095 482.687, 81.700 495.766 C 87.741 503.215, 93.916 504.879, 100.088 500.720 C 105.218 497.263, 105.968 495.010, 104.429 487.672 C 102.476 478.352, 100.176 459.306, 99.034 443 C 97.375 419.283, 97.997 366, 99.934 366 C 100.279 366, 103.023 370.158, 106.031 375.239 C 111.583 384.619, 122.449 401.599, 141.393 430.500 C 164.711 466.075, 188.612 492.082, 207.035 501.930 C 220.675 509.220, 242.887 511.762, 256.500 507.590 C 270.814 503.203, 282.466 496.081, 288.750 487.879 C 292.310 483.232, 292.696 481.334, 290.648 478.533 C 289.353 476.763, 289.065 476.815, 283.898 479.753 C 270.477 487.384, 257.591 488.706, 246.432 483.597 C 225.002 473.787, 203.120 449.067, 160.036 386 C 152.709 375.275, 144.249 363.217, 141.235 359.205 C 138.222 355.193, 135.923 351.779, 136.128 351.618 C 136.333 351.457, 139.023 349.676, 142.107 347.660 C 150.094 342.440, 170.949 324.002, 181.391 312.929 C 201.033 292.100, 220.387 264.090, 229.363 243.500 C 233.802 233.320, 235.346 221.663, 233.004 216.011 C 231.425 212.197, 225.579 207, 222.870 207 C 217.945 207, 215.674 209.827, 195.152 241.500 C 181.226 262.994, 162.670 285.228, 140.877 306.532 C 124.917 322.134, 100.924 341.271, 100.167 339.002 C 98.662 334.486, 106.185 275.648, 111.606 249.542 C 118.925 214.293, 118.666 216.281, 116.472 212.188 C 114.940 209.330, 113.273 208.027, 109 206.344 C 101.465 203.377, 93.618 202.699, 87.878 204.520 M 513.200 212.672 C 505.470 216.482, 500.239 226.310, 494.083 248.593 C 489.369 265.657, 483.959 296.036, 482.391 314.250 C 482.024 318.512, 481.292 322, 480.763 322 C 480.234 322, 477.067 320.313, 473.726 318.250 C 467.814 314.601, 467.393 314.500, 458.075 314.500 C 449.438 314.500, 447.858 314.804, 441.949 317.605 C 428.370 324.039, 419.207 337.652, 414.421 358.500 C 410.762 374.444, 409.477 378.165, 403.024 391.500 C 394.285 409.560, 386.277 419.492, 384.399 414.598 C 384.104 413.828, 384.568 401.070, 385.431 386.248 C 387.273 354.616, 387.403 340.977, 385.928 334.100 C 382.952 320.223, 367.706 312.028, 355.988 318.006 C 347.618 322.276, 341.331 329.995, 331.498 348.073 L 326.914 356.500 327.577 342.409 C 328.313 326.767, 327.925 325.145, 322.686 321.950 C 320.377 320.542, 317.670 320.006, 312.854 320.004 C 306.513 320, 306.066 320.160, 303.147 323.486 C 299.461 327.683, 297.633 333.469, 294.769 350 C 292.967 360.405, 292.613 366.272, 292.657 385 C 292.741 420.557, 296.326 433.286, 307.453 437.535 C 311.275 438.995, 312.593 439.057, 317.050 437.988 C 320.004 437.279, 323.670 435.473, 325.608 433.771 L 329 430.793 329.027 419.146 C 329.065 402.727, 330.394 391.001, 333.462 380 C 336.520 369.037, 343.146 354.744, 348.556 347.441 C 352.834 341.665, 358.071 337.496, 359.052 339.084 C 359.939 340.519, 359.183 348.403, 356.854 362 C 351.060 395.825, 354.758 423.281, 366.343 432.457 C 369.884 435.261, 370.800 435.500, 378.007 435.500 C 385.104 435.500, 386.228 435.219, 390.151 432.461 C 395.831 428.469, 400.560 422.076, 406.480 410.386 L 411.318 400.832 413.697 409.166 C 418.556 426.185, 425.278 435.122, 437.778 441.185 C 451.671 447.923, 464.965 444.525, 478.213 430.851 C 481.994 426.947, 485.205 423.922, 485.349 424.127 C 485.493 424.332, 486.888 427.745, 488.449 431.711 C 493.247 443.904, 502.622 452.525, 513.249 454.519 C 516.285 455.088, 517.579 454.697, 521.428 452.050 C 523.942 450.320, 526 448.323, 526 447.612 C 526 446.901, 524.678 442.505, 523.062 437.842 C 517.474 421.713, 516.673 414.025, 516.777 377.500 C 516.922 326.219, 521.306 287.938, 532.554 239.731 C 534.449 231.609, 536 223.682, 536 222.116 C 536 218.732, 532.933 214.534, 528.961 212.480 C 525.202 210.536, 517.340 210.632, 513.200 212.672 M 257 274.571 C 251.903 276.813, 248.117 280.852, 246.909 285.337 C 244.257 295.185, 252.358 306, 262.388 306 C 272.145 306, 280.564 295.569, 278.626 285.880 C 276.777 276.635, 265.597 270.788, 257 274.571 M 812.072 283.824 C 806.624 285.886, 798.033 293.562, 794.582 299.451 C 788.673 309.532, 787.636 326.284, 792.048 340.356 C 793.107 343.735, 793.972 347.625, 793.969 349 C 793.957 354.999, 774.743 388.392, 765.040 399.277 C 756.398 408.972, 740.287 418.016, 731.705 417.990 C 727.088 417.976, 718.991 413.893, 715.345 409.740 C 712.946 407.008, 711.695 403.992, 710.044 396.957 C 708.855 391.893, 708.094 387.196, 708.354 386.520 C 708.614 385.843, 713.629 383.360, 719.500 381 C 725.370 378.641, 732.808 374.771, 736.027 372.401 C 746.767 364.495, 754.182 352.869, 756.252 340.693 C 760.874 313.501, 727.377 299.180, 700.458 316.840 C 687.206 325.534, 678.749 338.211, 671.545 360.182 C 667.456 372.654, 665.572 376.571, 656.028 392.454 C 644.277 412.008, 640.537 416.937, 638.781 415.181 C 638.012 414.412, 638.076 404.289, 639.003 379.788 C 639.718 360.915, 640.077 342.325, 639.802 338.478 C 638.845 325.095, 631.773 317.027, 619.529 315.349 C 615.833 314.842, 614.071 315.232, 609.426 317.582 C 600.852 321.920, 596.230 327.763, 583.586 350.250 C 582.118 352.863, 580.482 355, 579.952 355 C 579.350 355, 579.272 351.720, 579.744 346.250 C 581.156 329.901, 580.894 327.431, 577.368 323.906 C 574.323 320.862, 569.196 319.147, 562.827 319.044 C 558.702 318.976, 554.262 323.386, 552.478 329.325 C 549.371 339.661, 545.863 371.540, 545.856 389.500 C 545.843 421.202, 551.126 436.803, 562.953 439.987 C 569.563 441.767, 575.120 440.557, 579.393 436.407 L 583 432.904 583.004 419.202 C 583.011 395.943, 587.641 376.193, 597.614 356.883 C 602.319 347.775, 610.072 338, 612.593 338 C 614.521 338, 614.382 340.235, 611.410 357 C 607.682 378.027, 607.106 399.198, 609.903 412.414 C 612.716 425.701, 615.576 430.459, 622.716 433.728 C 629.465 436.817, 635.912 436.414, 642.621 432.482 C 650.279 427.994, 659.283 414.123, 665.004 398 C 667.768 390.210, 668.726 388.920, 669.383 392.105 C 673.063 409.960, 675.353 415.693, 682.540 425.045 C 691.113 436.200, 700.453 440.235, 718 440.363 C 728.173 440.438, 730.362 440.131, 736.967 437.709 C 753.781 431.542, 764.970 422.378, 777.830 404.240 C 785.955 392.781, 790.826 384.015, 796.999 369.750 C 799.319 364.387, 801.619 360, 802.109 360 C 802.599 360, 803 360.383, 803 360.852 C 803 361.321, 807.049 368.183, 811.998 376.102 C 816.947 384.021, 820.997 390.842, 820.998 391.260 C 820.999 391.679, 816.774 396.179, 811.608 401.260 C 800.830 411.864, 794.823 420.596, 791.985 429.783 C 786.552 447.373, 792.539 460.989, 808.529 467.409 C 836.761 478.746, 869.137 460.629, 875.058 430.181 C 877.364 418.326, 874.493 399.946, 868.067 385.418 C 866.917 382.818, 866.094 380.593, 866.238 380.473 C 867.364 379.535, 873.458 376.964, 878 375.511 C 887.137 372.588, 898.343 366.257, 903.748 360.964 L 908.852 355.966 914.593 364.733 C 917.751 369.555, 923.007 377.766, 926.274 382.981 L 932.212 392.461 925.356 398.431 C 913.285 408.943, 908.071 415.072, 903.691 423.901 C 900.223 430.892, 899.463 433.497, 899.164 439.429 C 898.966 443.350, 899.330 448.510, 899.972 450.897 C 901.709 457.347, 908.604 464.201, 916.810 467.635 C 922.854 470.164, 924.659 470.437, 935.500 470.467 C 947.348 470.500, 947.597 470.453, 955.107 466.781 C 968.654 460.158, 976.721 451.038, 981.539 436.898 C 986.233 423.121, 985.602 407.847, 979.614 390.307 C 976.692 381.750, 976.309 382.304, 988.738 377.122 C 1003.007 371.172, 1010.128 366.913, 1016.750 360.365 C 1023.319 353.870, 1024.444 350.843, 1020.979 348.989 C 1018.705 347.772, 1018.739 347.756, 1010.500 353.808 C 1002.570 359.633, 995.494 363.127, 982.624 367.573 C 974.301 370.448, 971.693 370.990, 970.588 370.073 C 969.812 369.429, 966.586 364.986, 963.419 360.201 C 960.252 355.415, 955.793 349.025, 953.508 346 C 951.224 342.975, 947.590 337.612, 945.432 334.082 C 942.327 329.003, 941.820 327.565, 943.004 327.188 C 945.828 326.290, 951.763 319.163, 954.880 312.924 C 957.277 308.128, 958 305.361, 958 300.988 C 958 293.657, 955.331 289.535, 947.972 285.500 C 943.037 282.794, 941.617 282.500, 933.500 282.500 C 925.855 282.500, 923.650 282.899, 918.852 285.148 C 911.677 288.512, 906.248 293.940, 902.472 301.528 C 899.634 307.230, 899.504 308.064, 899.580 320 C 899.647 330.435, 900.083 333.864, 902.216 340.757 L 904.771 349.013 901.054 351.957 C 894.760 356.942, 883.034 362.682, 871.091 366.623 C 859.941 370.302, 859.651 370.344, 858.311 368.444 C 848.336 354.303, 837.637 338.354, 835.089 333.828 L 831.897 328.156 836.528 323.524 C 843.857 316.195, 848.541 303.276, 846.630 295.661 C 845.618 291.630, 840.968 286.894, 835.541 284.367 C 829.384 281.500, 818.854 281.256, 812.072 283.824 M 825.273 301.706 C 822.510 305.923, 822.870 314.726, 825.991 319.282 C 827.361 321.282, 828.762 322.599, 829.105 322.209 C 829.919 321.281, 831.726 316.061, 834.015 308.018 C 836.146 300.530, 835.533 299, 830.401 299 C 827.858 299, 826.617 299.655, 825.273 301.706 M 937.229 299.669 C 935.611 300.320, 933.460 304.580, 932.683 308.672 C 932.233 311.042, 932.849 313.379, 935.119 317.922 C 936.789 321.265, 938.562 324, 939.059 324 C 939.556 324, 940.271 322.762, 940.648 321.250 C 941.025 319.738, 942.379 316.250, 943.657 313.500 C 947.468 305.300, 946.389 298.928, 941.215 299.079 C 939.722 299.122, 937.928 299.388, 937.229 299.669 M 249.677 322.250 C 246.456 326.567, 244.518 332.938, 241.845 348 C 238.800 365.164, 238.550 398.926, 241.369 412.500 C 245.324 431.551, 248.409 436.120, 257.764 436.777 C 262.936 437.141, 263.924 436.872, 267.804 434.045 L 272.109 430.909 271.320 426.204 C 269.758 416.881, 270.646 377.413, 272.878 357 C 274.051 346.275, 275.202 335.646, 275.436 333.380 C 275.768 330.163, 275.307 328.445, 273.332 325.538 C 270.173 320.889, 265.768 319, 258.083 319 C 252.499 319, 251.941 319.216, 249.677 322.250 M 729.458 331.145 C 720.810 339.117, 711 358.725, 711 368.038 C 711 371.776, 711.944 371.748, 718.878 367.799 C 732.008 360.322, 741.188 347.122, 741.356 335.479 C 741.494 325.995, 736.872 324.312, 729.458 331.145 M 459.977 338.023 C 452.911 345.089, 448.614 357.437, 446.964 375.422 C 444.553 401.684, 451.416 425.869, 460.624 423.558 C 465.025 422.454, 468.732 419.286, 475.172 411.128 C 480.827 403.966, 481.160 403.248, 480.634 399.379 C 478.991 387.297, 477.823 366.130, 478.161 354.565 L 478.544 341.442 472.957 337.721 C 469.883 335.674, 466.611 334, 465.684 334 C 464.758 334, 462.190 335.810, 459.977 338.023 M 817.262 412.348 C 808.859 421.100, 803 431.092, 803 436.670 C 803 442.499, 808.665 447, 816 447 C 825.761 447, 833.011 438.592, 832.988 427.300 C 832.971 419.103, 828.564 404, 826.189 404 C 825.687 404, 821.669 407.756, 817.262 412.348 M 926.944 411.352 C 919.099 419.046, 913.466 428.353, 912.298 435.551 C 911.816 438.522, 912.185 439.584, 914.563 442.066 C 920.371 448.128, 930.475 448.276, 936.986 442.394 C 941.718 438.119, 943.448 432.382, 942.761 423.237 C 942.203 415.808, 938.202 404.663, 935.936 404.226 C 935.142 404.073, 931.096 407.280, 926.944 411.352 M 516.882 480.882 C 511.908 485.857, 511.789 488.989, 516.400 493.600 C 520.943 498.143, 525.615 498.285, 529.665 494.003 C 531.224 492.354, 532.760 489.992, 533.077 488.753 C 534.450 483.392, 529.376 477, 523.747 477 C 521.616 477, 519.657 478.108, 516.882 480.882 M 559 490.586 C 547.121 497.350, 543.687 505.377, 546.596 519.579 C 548.561 529.165, 551.793 537.138, 557.164 545.643 L 561.191 552.018 553.698 559.983 C 541.617 572.825, 538.499 581.899, 542.865 591.509 C 546.960 600.522, 556.411 605.484, 568.189 604.801 C 576.696 604.308, 582.690 601.786, 589.410 595.870 C 599.503 586.986, 602.734 571.561, 597.551 557 C 593.678 546.121, 593.707 545.872, 599 544.491 C 607.401 542.299, 616.304 536.687, 620.582 530.888 C 625.441 524.302, 622.707 523.058, 615.211 528.444 C 609.021 532.891, 598.869 537.677, 593.816 538.531 C 588.821 539.375, 587.064 537.862, 578.919 525.704 L 573.026 516.908 576.371 513.562 C 581.014 508.919, 584.331 501.784, 583.534 498.154 C 581.573 489.226, 568.482 485.187, 559 490.586 M 567.926 500.694 C 566.271 505.047, 567.123 509.446, 569.692 509.812 C 573.410 510.341, 576.628 502.028, 573.800 499.200 C 571.744 497.144, 569.012 497.839, 567.926 500.694 M 513.001 509.499 C 506.967 519.262, 505.470 558.513, 510.567 573.300 C 512.709 579.512, 515.577 581.420, 521.730 580.727 C 527.409 580.087, 530.484 577.043, 529.471 573.063 C 527.008 563.389, 527.451 543.724, 530.569 524.322 C 532.617 511.571, 532.449 511.025, 525.500 507.863 C 519.033 504.922, 515.548 505.378, 513.001 509.499 M 560.303 564.684 C 554.307 571.915, 549 580.010, 549 581.925 C 549 584.115, 553.655 588.553, 557.461 589.992 C 561.545 591.535, 564.245 590.624, 567.889 586.474 C 571.689 582.146, 571.945 577.770, 568.926 568.718 C 565.792 559.319, 565.043 558.968, 560.303 564.684 M 713.636 588.181 C 708.242 589.677, 701.478 596.442, 700.055 601.765 C 697.766 610.326, 701.625 619.188, 709.250 622.879 C 718.266 627.243, 727.925 624.346, 733.848 615.500 C 736.876 610.978, 737.156 609.952, 736.785 604.765 C 736.462 600.255, 735.735 598.241, 733.379 595.330 C 727.374 587.910, 721.838 585.905, 713.636 588.181 M 806.500 634.698 C 771.932 639.282, 751.592 671.862, 751.682 722.500 C 751.725 746.264, 755.816 762.356, 764.850 774.294 C 773.176 785.296, 783.875 790.883, 800.982 793.159 C 811.731 794.589, 821.538 792.811, 833.351 787.290 C 847.990 780.448, 858.790 770.082, 872.199 750 C 879.287 739.385, 895.003 708.620, 896.825 701.795 C 897.910 697.729, 897.387 696.858, 892.816 695.120 C 889.459 693.844, 889.145 694.208, 880.016 710 C 870.500 726.462, 865.615 733.200, 855.460 743.871 C 846.664 753.114, 835.520 761.488, 828.230 764.333 C 822.954 766.392, 813.853 766.493, 810.065 764.534 C 804.961 761.894, 799.141 754.198, 796.995 747.248 C 795.384 742.031, 795.002 737.973, 795.010 726.145 C 795.038 686.725, 807.949 657, 825.042 657 C 829.071 657, 830.503 659.641, 832.836 671.378 C 834.937 681.946, 837.054 685.912, 841.420 687.467 C 848.430 689.963, 852.390 682.494, 851.744 668 C 851.295 657.925, 849.074 652.205, 843.087 645.710 C 835.478 637.455, 820.255 632.873, 806.500 634.698 M 203.187 642.682 C 198.839 647.254, 197.874 650.053, 194.594 667.615 C 190.931 687.231, 189.635 703.959, 189.564 732.500 C 189.457 775.978, 192.913 786.632, 207.753 788.572 C 214.392 789.440, 220.761 787.725, 224.884 783.959 L 228 781.113 228 769.162 C 228 737.498, 235.024 708.500, 247.595 688.273 C 252.845 679.825, 260.499 671, 262.576 671 C 264.950 671, 265.307 679.950, 264.071 708.473 C 262.784 738.165, 263.504 755.190, 266.566 767.427 C 268.385 774.695, 269.192 775.708, 275.500 778.649 C 284.026 782.624, 293.580 781.481, 299.659 775.757 C 303.156 772.466, 304.873 767.606, 309.901 746.771 C 315.823 722.234, 326.444 697.049, 334.744 687.861 C 341.787 680.066, 341.940 681.041, 339.390 717.488 C 337.201 748.776, 337.923 794.058, 340.833 808 C 345.882 832.190, 354.457 844.153, 369.994 848.682 C 377.946 851, 384.393 850.733, 392.848 847.737 C 405.520 843.245, 407.110 839.942, 398.607 835.772 C 387.540 830.344, 382.429 823.307, 379.081 808.892 C 376.097 796.039, 375.706 788.167, 375.560 738 C 375.410 686.296, 374.637 677.897, 369.218 669.078 C 363.998 660.583, 352.931 657.753, 339.979 661.599 C 327.823 665.209, 315.099 677.124, 307.694 691.834 C 305.331 696.527, 302.884 700.539, 302.256 700.748 C 301.042 701.153, 300.967 700.786, 298.699 683.500 C 296.992 670.486, 294.308 662.888, 289.385 657.136 C 284.943 651.948, 279.778 649.226, 272.824 648.410 C 258.426 646.721, 246.058 655.940, 232.901 678.167 C 230.024 683.027, 227.559 686.890, 227.422 686.752 C 227.286 686.613, 228.059 680.650, 229.140 673.500 C 231.306 659.172, 231.119 649.356, 228.606 645.521 C 226.181 641.820, 221.313 639.755, 213.733 639.213 L 206.949 638.728 203.187 642.682 M 617 642.622 C 606.575 644.617, 596.061 649.414, 588.167 655.777 C 574.060 667.148, 565.083 680.085, 556.436 701.500 C 553.772 708.100, 549.801 716.425, 547.613 720 C 545.425 723.575, 539.529 734.375, 534.509 744 C 522.859 766.340, 518.475 773.242, 516.219 772.792 C 514.688 772.487, 514.514 770.979, 514.630 758.975 C 514.750 746.621, 516.652 727.884, 522.040 686 C 523.137 677.475, 524.240 669.265, 524.491 667.755 C 525.408 662.247, 516.568 655.566, 508.662 655.791 C 506.970 655.839, 504.074 657.213, 501.780 659.056 L 497.820 662.239 493.660 658.275 C 487.545 652.447, 484.385 650.570, 475.500 647.482 C 469.078 645.250, 465.626 644.682, 458 644.601 C 449.226 644.508, 447.969 644.751, 441.556 647.788 C 431.489 652.556, 419.900 664.531, 414.256 676 C 402.526 699.835, 398.291 727.246, 402.894 749.547 C 406.085 765.013, 412.433 774.614, 422.839 779.716 C 427.652 782.075, 429.699 782.481, 436.500 782.423 C 452.280 782.290, 465.853 774.331, 474.313 760.250 C 476.048 757.362, 477.740 755, 478.073 755 C 478.407 755, 479.209 759.312, 479.857 764.583 C 481.272 776.098, 484.041 784.896, 488.195 791.073 C 492.776 797.886, 496.427 800, 503.616 800 C 520.595 800, 531.215 786.347, 547.174 744 C 548.314 740.975, 549.573 738.141, 549.971 737.702 C 550.369 737.264, 550.960 741.764, 551.283 747.702 C 552.346 767.225, 557.040 777.032, 568.224 783.097 C 573.901 786.175, 575.216 786.486, 582 786.349 C 591.429 786.158, 599.190 783.345, 605.424 777.858 C 611.432 772.570, 614.965 767.358, 623.296 751.500 L 630.124 738.500 629.511 749 C 629.173 754.775, 628.273 764.225, 627.510 770 C 626.748 775.775, 625.834 783.251, 625.479 786.613 L 624.835 792.725 617.168 793.259 C 612.795 793.564, 606.341 794.901, 602.147 796.372 C 586.153 801.980, 567.001 814.781, 559.677 824.758 C 547.154 841.819, 545.874 863.315, 556.634 875.886 C 566.898 887.877, 589.627 890.083, 609.599 881.028 C 626.154 873.521, 641.421 858.450, 650.014 841.130 C 658.860 823.302, 664.875 797.079, 666.919 767.441 C 668.708 741.495, 668.740 739.921, 667.916 719.329 C 667.122 699.485, 667.058 699.058, 664.003 693.007 C 660.389 685.848, 658.176 684.578, 647.500 683.540 C 640.533 682.863, 640.481 682.876, 636.378 686.398 C 632.006 690.151, 627.926 697.325, 618.996 716.959 C 606.422 744.604, 603.183 750.471, 596.271 758.121 C 592.351 762.461, 591.298 762.260, 588.187 756.573 C 584.379 749.610, 586.906 721.991, 593.052 703.409 C 600.168 681.895, 616.858 665.431, 632.254 664.740 C 638.908 664.441, 641.768 666.174, 646.307 673.255 C 648.156 676.140, 650.400 679.102, 651.294 679.838 C 654.960 682.859, 663.025 677.734, 664.622 671.369 C 667.115 661.437, 657.007 649.593, 642.069 644.944 C 635.854 643.010, 621.785 641.707, 617 642.622 M 708.271 642.816 C 704.516 643.351, 699.488 650.334, 697.146 658.265 C 692.749 673.158, 690.813 690.660, 690.651 717 C 690.530 736.673, 690.845 743.286, 692.248 750.563 C 694.674 763.138, 696.489 768.818, 699.630 773.658 C 705.321 782.430, 716.795 785.180, 724.742 779.677 C 730.693 775.556, 731.585 772.657, 729.475 764.307 C 728.124 758.965, 727.775 753.411, 727.849 738.500 C 727.943 719.764, 728.306 714.050, 731.543 680.500 C 733.573 659.459, 733.257 654.336, 729.633 649.586 C 728.140 647.628, 725.939 645.503, 724.742 644.862 C 722.390 643.603, 711.896 642.300, 708.271 642.816 M 466.363 669.867 C 453.992 675.651, 445.905 689.158, 439.828 714.185 C 438.088 721.352, 437.559 726.499, 437.533 736.500 C 437.502 748.718, 437.667 749.839, 440.273 755.147 C 444.694 764.150, 445.226 764.268, 451.493 757.641 C 454.455 754.509, 458.719 749.146, 460.970 745.724 C 465.581 738.709, 476.841 716.877, 479.434 709.920 C 481.006 705.705, 488.742 677.452, 489.271 674 C 489.610 671.779, 482.362 668.645, 476 668.263 C 472.100 668.029, 469.296 668.496, 466.363 669.867 M 615 805.462 C 608.400 807.344, 600.548 810.625, 591.500 815.280 C 580.548 820.914, 569.189 832.121, 566.152 840.288 C 560.812 854.648, 566.407 866.564, 579.060 867.780 C 592.257 869.048, 605.176 857.878, 613.592 837.923 C 616.502 831.022, 622 809.907, 622 805.630 C 622 803.738, 621.119 803.717, 615 805.462" stroke="none" fill="#26243b" fill-rule="evenodd"/><path d="M 407 202.804 C 407 208.597, 406.573 210.270, 404.130 214.054 C 402.551 216.499, 399.626 220.051, 397.630 221.946 C 392.579 226.741, 392.912 228.405, 399.574 231.668 C 405.486 234.562, 408.536 238.514, 411.024 246.500 C 412.934 252.628, 415.894 258, 417.362 258 C 418.707 258, 429.680 246.886, 431.500 243.680 C 432.220 242.411, 434.096 241.805, 438.204 241.513 C 447.413 240.859, 450.692 239.957, 453.075 237.420 L 455.319 235.031 450.619 229.048 C 443.949 220.559, 443.614 219.123, 445.804 208.445 C 446.819 203.497, 447.466 198.897, 447.241 198.224 C 446.559 196.177, 443.131 196.829, 434.801 200.590 C 425.747 204.678, 424.788 204.621, 416.282 199.491 C 407.725 194.332, 407 194.590, 407 202.804 M 516.378 383 C 516.378 389.325, 516.541 391.913, 516.739 388.750 C 516.937 385.587, 516.937 380.413, 516.739 377.250 C 516.541 374.087, 516.378 376.675, 516.378 383 M 98.336 388 C 98.336 392.125, 98.513 393.813, 98.728 391.750 C 98.944 389.688, 98.944 386.313, 98.728 384.250 C 98.513 382.188, 98.336 383.875, 98.336 388 M 638.320 398 C 638.320 401.575, 638.502 403.038, 638.723 401.250 C 638.945 399.462, 638.945 396.538, 638.723 394.750 C 638.502 392.962, 638.320 394.425, 638.320 398 M 98.349 426 C 98.349 430.675, 98.522 432.587, 98.732 430.250 C 98.943 427.913, 98.943 424.087, 98.732 421.750 C 98.522 419.413, 98.349 421.325, 98.349 426 M 747.250 476.772 C 746.288 477.746, 744.786 479.635, 743.913 480.970 L 742.325 483.396 737.686 481.624 C 732.179 479.521, 730.686 480.044, 732.038 483.601 C 733.450 487.315, 733.211 493.559, 731.500 497.654 C 730.675 499.629, 730 501.478, 730 501.765 C 730 502.051, 732.637 502.009, 735.860 501.672 L 741.720 501.060 743.310 505.106 C 744.590 508.365, 745.332 509.089, 747.121 508.826 C 749.285 508.509, 750.027 507.118, 751.432 500.750 C 751.793 499.112, 752.702 498, 753.681 498 C 755.790 498, 764 493.211, 764 491.981 C 764 490.726, 760.123 488.288, 756.844 487.483 C 754.133 486.817, 753.039 484.665, 753.014 479.950 C 753 477.461, 751.403 475, 749.800 475 C 749.360 475, 748.212 475.797, 747.250 476.772 M 437.966 488.064 C 437.087 489.706, 436.261 489.997, 433.930 489.485 C 430.558 488.744, 430.499 488.978, 432.556 494.886 C 434.048 499.169, 434.022 499.361, 431.447 503.077 C 429.996 505.170, 429.104 507.359, 429.464 507.941 C 429.824 508.524, 432.132 509, 434.593 509 C 438.657 509, 439.259 509.325, 441.157 512.542 C 443.609 516.697, 445.091 516.589, 446.235 512.171 C 446.838 509.846, 448.549 507.992, 452.531 505.348 C 455.539 503.351, 458 501.309, 458 500.810 C 458 500.312, 456.784 498.858, 455.298 497.580 C 453.812 496.302, 452.075 493.736, 451.437 491.878 C 450.489 489.114, 449.823 488.548, 447.775 488.767 C 446.399 488.913, 444.706 488.351, 444.014 487.517 C 442.231 485.369, 439.265 485.637, 437.966 488.064 M 658.016 499.643 C 658.024 502.864, 658.683 508.200, 659.480 511.500 C 661.976 521.835, 661.706 522.952, 655.028 529.970 C 648.755 536.563, 647.124 539.524, 648.827 541.227 C 649.832 542.232, 659.286 542.676, 665.785 542.023 C 669.577 541.643, 673.367 544.706, 677.816 551.748 C 679.292 554.085, 680.978 555.997, 681.563 555.998 C 684.078 556.002, 688.119 550.027, 689.870 543.714 C 691.058 539.429, 693.686 534.119, 697.258 528.782 C 704.173 518.452, 706.574 513.014, 704.773 511.759 C 704.073 511.271, 698.921 511.120, 693.324 511.422 L 683.149 511.972 677.733 506.736 C 672.825 501.990, 664.248 496.126, 659.750 494.442 C 658.207 493.864, 658.002 494.479, 658.016 499.643 M 397.253 527.304 C 395.189 529.122, 391.209 532.258, 388.408 534.274 L 383.316 537.939 376.408 535.083 C 372.609 533.513, 367.109 531.634, 364.186 530.908 C 358.318 529.452, 356.496 530.425, 357.448 534.508 C 357.706 535.612, 358.631 540.656, 359.504 545.715 L 361.092 554.915 357.578 560.023 C 355.645 562.833, 352.666 566.897, 350.957 569.055 C 345.574 575.850, 347.660 577.721, 360.816 577.900 C 364.839 577.955, 368.953 578.440, 369.957 578.977 C 370.962 579.515, 373.861 583.498, 376.400 587.830 C 378.940 592.162, 381.914 596.517, 383.009 597.508 C 384.928 599.244, 385.074 599.243, 387.025 597.477 C 388.139 596.469, 391.264 591.022, 393.969 585.371 L 398.888 575.099 407.694 572.475 C 412.537 571.032, 417.247 569.642, 418.160 569.387 C 419.073 569.131, 420.363 568.267, 421.028 567.466 C 422.686 565.468, 420.620 562.493, 411.789 554.163 L 404.760 547.532 405.446 538.191 C 406.009 530.516, 405.848 528.417, 404.543 526.425 C 402.474 523.267, 401.737 523.356, 397.253 527.304 M 191.471 543.090 C 191.106 544.240, 191.123 548.747, 191.509 553.105 L 192.211 561.029 184.105 569.333 C 179.647 573.900, 176 578.376, 176 579.280 C 176 580.886, 178.430 581.825, 187 583.533 C 191.975 584.525, 192.893 585.529, 197.066 594.540 C 199.114 598.962, 201.579 603.236, 202.545 604.037 C 204.138 605.360, 204.677 605.043, 208.400 600.603 C 218.952 588.017, 217.319 589.010, 228.500 588.377 C 234 588.066, 238.882 587.449, 239.349 587.006 C 240.767 585.662, 239.150 582.401, 233.330 574.868 L 227.776 567.681 229.529 560.090 C 230.493 555.916, 231.460 552.179, 231.677 551.786 C 231.895 551.394, 231.181 550.181, 230.091 549.091 C 227.842 546.842, 225.705 547.179, 217.873 551.013 C 211.961 553.908, 210.195 553.423, 201.572 546.535 C 197.761 543.491, 194.079 541, 193.389 541 C 192.699 541, 191.836 541.941, 191.471 543.090 M 668.328 727.500 C 668.333 731.350, 668.513 732.802, 668.730 730.728 C 668.946 728.653, 668.943 725.503, 668.722 723.728 C 668.501 721.952, 668.324 723.650, 668.328 727.500 M 549.782 737.750 C 549.597 738.163, 549.724 740.750, 550.065 743.500 L 550.686 748.500 550.843 742.750 C 550.987 737.468, 550.641 735.835, 549.782 737.750 M 337.417 760.500 C 337.418 770.950, 337.566 775.089, 337.746 769.698 C 337.926 764.307, 337.925 755.757, 337.744 750.698 C 337.563 745.639, 337.416 750.050, 337.417 760.500 M 668.320 748 C 668.320 751.575, 668.502 753.038, 668.723 751.250 C 668.945 749.462, 668.945 746.538, 668.723 744.750 C 668.502 742.962, 668.320 744.425, 668.320 748 M 228.320 759 C 228.320 762.575, 228.502 764.038, 228.723 762.250 C 228.945 760.462, 228.945 757.538, 228.723 755.750 C 228.502 753.962, 228.320 755.425, 228.320 759 M 375.349 767 C 375.349 771.675, 375.522 773.587, 375.732 771.250 C 375.943 768.913, 375.943 765.087, 375.732 762.750 C 375.522 760.413, 375.349 762.325, 375.349 767" stroke="none" fill="#f67a20" fill-rule="evenodd"/><path d="M 0 540.001 L 0 1080.002 540.250 1079.751 L 1080.500 1079.500 1080.751 539.750 L 1081.002 -0 540.501 -0 L 0 0 0 540.001 M 0.496 540.500 C 0.496 837.500, 0.610 958.851, 0.750 810.168 C 0.890 661.485, 0.890 418.485, 0.750 270.168 C 0.610 121.851, 0.496 243.500, 0.496 540.500 M 407 202.804 C 407 208.597, 406.573 210.270, 404.130 214.054 C 402.551 216.499, 399.626 220.051, 397.630 221.946 C 392.579 226.741, 392.912 228.405, 399.574 231.668 C 405.486 234.562, 408.536 238.514, 411.024 246.500 C 412.934 252.628, 415.894 258, 417.362 258 C 418.707 258, 429.680 246.886, 431.500 243.680 C 432.220 242.411, 434.096 241.805, 438.204 241.513 C 447.413 240.859, 450.692 239.957, 453.075 237.420 L 455.319 235.031 450.619 229.048 C 443.949 220.559, 443.614 219.123, 445.804 208.445 C 446.819 203.497, 447.466 198.897, 447.241 198.224 C 446.559 196.177, 443.131 196.829, 434.801 200.590 C 425.747 204.678, 424.788 204.621, 416.282 199.491 C 407.725 194.332, 407 194.590, 407 202.804 M 87 204.250 C 81.111 206.224, 74.664 213.567, 72.732 220.501 C 68.461 235.829, 62.258 276.580, 59.336 308.500 C 57.174 332.115, 56.867 388.079, 58.793 407.500 C 62.634 446.234, 69.555 477.033, 77.444 490.495 C 78.772 492.761, 81.905 496.502, 84.407 498.808 C 88.196 502.300, 89.635 503, 93.027 503 C 98.236 503, 102.560 500.752, 104.475 497.049 C 105.809 494.468, 105.816 493.231, 104.529 486.316 C 99.884 461.347, 97.633 423.321, 98.684 387.578 C 99.431 362.170, 98.495 362.746, 109.383 381 C 127.088 410.683, 150.864 446.065, 163.359 461.327 C 189.238 492.936, 202.011 502.917, 223.024 507.954 C 244.669 513.143, 268.248 507.517, 283.785 493.456 C 290.876 487.039, 293.297 482.746, 291.745 479.340 C 291.159 478.053, 290.189 476.998, 289.589 476.996 C 288.990 476.993, 285.350 478.566, 281.500 480.492 C 266.681 487.903, 257.485 488.427, 245.286 482.556 C 224.583 472.592, 203.519 448.782, 162.519 389 C 153.277 375.525, 143.755 361.907, 141.358 358.739 C 138.961 355.570, 137.014 352.645, 137.032 352.239 C 137.049 351.832, 140.087 349.403, 143.782 346.840 C 158.648 336.527, 181.907 314.083, 196.897 295.586 C 214.075 274.388, 231.054 244.913, 233.944 231.274 C 236.229 220.488, 233.060 211.216, 225.903 207.750 C 223.033 206.360, 222.255 206.334, 219.903 207.550 C 215.880 209.630, 211.084 215.697, 201.885 230.343 C 181.312 263.094, 156.619 292.881, 131.212 315.595 C 121.199 324.546, 102.443 339, 100.840 339 C 100.251 339, 100.074 336.892, 100.398 333.750 C 100.696 330.863, 101.203 325.350, 101.523 321.500 C 102.437 310.524, 104.814 291.948, 107.537 274.500 C 110.027 258.538, 111.010 253.392, 115.581 232.380 C 118.951 216.887, 118.826 213.626, 114.703 209.503 C 112.890 207.690, 109.627 205.694, 107.453 205.068 C 101.490 203.351, 90.941 202.929, 87 204.250 M 517.500 210.938 C 507.537 213.354, 502.578 220.104, 496.146 240 C 490.804 256.525, 484.497 289.173, 482.430 311 C 481.336 322.556, 481.486 322.413, 474.652 318.384 C 466.917 313.825, 461.072 312.623, 452.974 313.927 C 435.968 316.665, 422.734 329.415, 416.568 349 C 415.269 353.125, 413.278 360.895, 412.143 366.267 C 409.044 380.936, 396.263 406.777, 388.547 413.974 C 386.306 416.064, 385.744 416.219, 384.923 414.974 C 384.388 414.163, 384.191 411.025, 384.484 408 C 387.162 380.341, 387.744 338.821, 385.556 331.483 C 382.933 322.684, 373.713 315.753, 364.526 315.674 C 353.120 315.575, 344.609 323.800, 331.073 348 L 326.878 355.500 327.484 347 C 327.817 342.325, 328.318 336.475, 328.596 334 C 328.979 330.594, 328.615 328.723, 327.099 326.304 C 323.820 321.074, 320.496 319.505, 312.690 319.502 C 306.022 319.500, 305.685 319.620, 302.859 323 C 297.017 329.987, 293.130 350.236, 292.303 378 C 291.080 419.025, 296.469 436.778, 310.727 438.690 C 315.742 439.363, 323.889 436.811, 326.876 433.632 C 328.887 431.492, 329.071 430.067, 329.496 413.365 C 330.077 390.519, 333.050 377.377, 341.455 360.500 C 346.881 349.605, 354.834 339, 357.578 339 C 359.623 339, 359.412 345.502, 356.924 359.129 C 352.759 381.939, 353.283 408.637, 358.151 421.667 C 361.908 431.724, 368.265 436.427, 378 436.353 C 389.870 436.263, 397.254 429.412, 407.721 408.773 C 410.344 403.600, 411.513 402.077, 411.768 403.500 C 412.628 408.291, 416.487 418.960, 419.296 424.313 C 424.372 433.988, 435.657 442.340, 447.138 444.920 C 452.067 446.027, 460.021 444.202, 467.133 440.331 C 471.497 437.956, 479.744 430.468, 483.468 425.500 C 484.951 423.521, 484.974 423.524, 485.613 425.797 C 487.231 431.559, 493.159 441.897, 497.132 445.887 C 502.075 450.851, 509.989 454.976, 514.600 454.990 C 518.475 455.002, 526 449.762, 526 447.051 C 526 445.985, 524.641 441.058, 522.980 436.100 C 517.529 419.830, 516.758 410.898, 517.320 370.500 C 518.018 320.371, 521.369 291.359, 531.918 244.124 C 536.381 224.138, 536.793 219.578, 534.439 216.217 C 531.478 211.989, 523.462 209.491, 517.500 210.938 M 254.450 275.581 C 248.785 279.282, 246.690 282.574, 246.275 288.430 C 245.317 301.953, 260.255 310.947, 271.257 303.471 C 277.143 299.472, 280.532 291.510, 278.886 285.550 C 275.865 274.609, 263.598 269.604, 254.450 275.581 M 814.314 282.796 C 806.845 285.465, 801.645 289.228, 797.127 295.236 C 788.628 306.536, 786.809 321.017, 791.535 339.758 L 794.070 349.811 789.930 358.649 C 774.759 391.033, 757.722 410.294, 739.180 416.025 C 734.372 417.511, 731.926 417.769, 728.961 417.103 C 723.359 415.844, 716.183 411.349, 713.972 407.713 C 711.669 403.927, 707.549 387.008, 708.688 386.018 C 709.135 385.630, 712.200 384.273, 715.500 383.004 C 737.439 374.567, 749.663 363.538, 755.064 347.308 C 759.057 335.308, 756.134 322.442, 747.940 315.953 C 739.452 309.230, 724.586 306.822, 712.953 310.286 C 701.858 313.590, 690.213 323.060, 682.328 335.191 C 677.070 343.282, 675.199 347.540, 670.144 362.929 C 666.931 372.712, 664.329 377.977, 655.202 393.164 C 643.934 411.914, 640.724 416.124, 639.004 414.404 C 638.406 413.806, 638.446 404.045, 639.112 387.978 C 640.763 348.181, 640.643 334.255, 638.610 329.500 C 633.370 317.250, 620.189 311.822, 609.217 317.396 C 600.894 321.625, 594.794 328.959, 585.928 345.395 C 583.677 349.569, 581.409 353.247, 580.888 353.569 C 580.298 353.934, 580.198 349.049, 580.622 340.588 L 581.303 327.022 577.729 323.652 C 573.996 320.130, 570.562 319, 563.598 319 C 554.529 319, 551.870 324.604, 548.517 350.786 C 543.989 386.142, 544.257 407.403, 549.444 424.409 C 553.078 436.322, 558.546 441.004, 568.815 440.996 C 574.108 440.992, 578.955 438.525, 581.600 434.488 C 582.980 432.381, 583.290 429.640, 583.217 420.191 C 583.028 396.009, 587.251 378.192, 598.293 356.579 C 603.740 345.917, 611.241 336.841, 613.084 338.684 C 613.834 339.434, 613.560 343.090, 612.149 351.123 C 608.510 371.854, 607.968 376.971, 607.936 390.866 C 607.890 410.877, 611.218 425.233, 617.155 430.633 C 626.327 438.976, 639.092 437.859, 648.708 427.871 C 654.006 422.368, 661.078 410.025, 664.609 400.117 C 666.102 395.928, 667.647 392.126, 668.043 391.669 C 668.439 391.211, 669.512 394.361, 670.427 398.669 C 672.675 409.252, 674.425 413.800, 678.927 420.766 C 683.730 428.197, 691.048 434.543, 698.621 437.843 C 703.910 440.148, 705.804 440.409, 717.500 440.450 C 728.716 440.490, 731.357 440.177, 736.743 438.173 C 754.782 431.459, 764.738 423.223, 778.661 403.500 C 786.901 391.826, 791.174 384.194, 796.996 370.750 C 799.318 365.387, 801.536 361, 801.925 361 C 802.314 361, 803.689 362.913, 804.982 365.250 C 806.274 367.587, 810.455 374.386, 814.272 380.358 L 821.212 391.217 812.177 400.358 C 798.598 414.096, 794.418 420.009, 791.513 429.584 C 789.720 435.495, 789.559 445.797, 791.176 451.193 C 792.806 456.633, 799.072 463.399, 805.303 466.448 C 832.675 479.839, 866.554 463.899, 874.547 433.869 C 875.333 430.916, 875.976 424.225, 875.976 419 C 875.975 409.195, 873.901 399.581, 868.992 386.631 C 866.482 380.009, 866.423 380.117, 874 377.414 C 890.233 371.622, 900.056 366.146, 905.631 359.778 L 908.762 356.202 913.051 362.851 C 923.444 378.962, 931 391.108, 931 391.704 C 931 392.058, 925.689 397.557, 919.198 403.924 C 906.665 416.217, 902.745 422.071, 899.487 433.356 C 896.235 444.621, 900.057 457.111, 908.674 463.383 C 919.550 471.298, 937.286 473.712, 950.500 469.074 C 958.069 466.418, 968.636 459.281, 972.952 453.910 C 984.905 439.037, 988.088 417.164, 981.452 395.500 C 977.222 381.688, 976.882 382.551, 988.500 377.609 C 994 375.270, 1000.075 372.544, 1002 371.552 C 1009.025 367.933, 1018.020 360.831, 1020.921 356.615 C 1023.664 352.629, 1023.777 352.127, 1022.390 350.147 C 1020.199 347.018, 1018.247 347.504, 1011.075 352.962 C 1007.542 355.652, 1001.917 359.184, 998.575 360.812 C 991.267 364.372, 975.579 370, 972.963 370 C 970.763 370, 969.354 368.262, 955.941 349 C 941.377 328.085, 941.977 329.801, 947.255 324.159 C 959.142 311.450, 961.990 297.327, 954.248 289.485 C 949.243 284.417, 941.480 281.560, 932.832 281.605 C 926.279 281.639, 924.222 282.109, 918.689 284.832 C 907.604 290.289, 900.811 300.207, 898.896 313.731 C 897.779 321.620, 898.272 326.048, 901.743 339.297 L 904.310 349.094 902.012 350.797 C 892.241 358.038, 879.121 364.297, 866.227 367.870 L 858.987 369.876 857.579 367.188 C 856.805 365.710, 852.152 358.790, 847.240 351.812 C 842.329 344.834, 837.025 336.670, 835.455 333.671 L 832.600 328.218 837.729 322.606 C 845.513 314.089, 849.845 300.429, 846.679 294.382 C 841.148 283.816, 826.319 278.507, 814.314 282.796 M 827.400 299.765 C 823.516 302.359, 822.513 312.774, 825.635 318.108 C 826.661 319.861, 827.936 321.342, 828.469 321.398 C 829.510 321.507, 834.794 305.916, 834.922 302.357 C 835.028 299.449, 830.308 297.823, 827.400 299.765 M 936.224 301.261 C 932.800 304.906, 932.281 311.659, 935.010 317.071 C 938.774 324.539, 939.081 324.623, 941.220 318.777 C 946.497 304.358, 946.278 305.353, 944.835 302.329 C 943.046 298.580, 939.193 298.102, 936.224 301.261 M 250.182 320.962 C 243.949 327.786, 240.079 348.175, 239.356 378 C 238.905 396.568, 239.105 401.043, 240.823 410.813 C 243.022 423.320, 246.759 432.151, 251.218 435.377 C 257.001 439.560, 270.064 436.308, 271.622 430.298 C 271.936 429.087, 271.679 422.562, 271.052 415.798 C 269.740 401.652, 270.567 383.642, 274.064 350.283 L 276.287 329.066 273.577 325.512 C 269.609 320.309, 266.753 318.830, 259.564 318.253 C 253.311 317.751, 253.044 317.828, 250.182 320.962 M 732.402 329.250 C 724.304 335.604, 716.699 347.551, 713.316 359.232 C 710.307 369.619, 710.297 371.357, 713.250 370.424 C 717.134 369.198, 729.774 360.163, 732.369 356.758 C 736.945 350.753, 740.998 340.856, 740.999 335.684 C 741.001 327.107, 737.998 324.859, 732.402 329.250 M 460.012 338.750 C 454.765 344.051, 451.334 351.946, 448.440 365.375 C 447.092 371.635, 446.849 376.456, 447.257 388.875 C 447.846 406.756, 450.125 416.279, 454.978 421.132 C 457.403 423.557, 458.183 423.808, 460.882 423.034 C 465.842 421.611, 469.507 418.458, 475.039 410.851 L 480.206 403.748 479.623 396.124 C 479.302 391.931, 478.748 377.899, 478.391 364.941 L 477.742 341.382 472.041 337.691 C 468.905 335.661, 465.974 334, 465.527 334 C 465.080 334, 462.598 336.137, 460.012 338.750 M 817.883 411.750 C 810.284 419.727, 804.663 428.833, 803.515 435.027 C 802.722 439.306, 805.533 443.489, 810.636 445.621 C 815.130 447.499, 818.387 447.354, 822.851 445.076 C 830.723 441.060, 834.472 431.093, 832.163 420.324 C 830.779 413.870, 827.089 404, 826.061 404 C 825.623 404, 821.943 407.488, 817.883 411.750 M 928.987 409.750 C 917.945 419.743, 910.465 434.054, 913.262 439.839 C 916.064 445.635, 926.903 448.170, 933.748 444.630 C 941.305 440.722, 944.823 429.503, 941.941 418.500 C 940.427 412.718, 936.887 404, 936.054 404 C 935.662 404, 932.482 406.587, 928.987 409.750 M 747.250 476.772 C 746.288 477.746, 744.786 479.635, 743.913 480.970 L 742.325 483.396 737.686 481.624 C 732.179 479.521, 730.686 480.044, 732.038 483.601 C 733.450 487.315, 733.211 493.559, 731.500 497.654 C 730.675 499.629, 730 501.478, 730 501.765 C 730 502.051, 732.637 502.009, 735.860 501.672 L 741.720 501.060 743.310 505.106 C 744.590 508.365, 745.332 509.089, 747.121 508.826 C 749.285 508.509, 750.027 507.118, 751.432 500.750 C 751.793 499.112, 752.702 498, 753.681 498 C 755.790 498, 764 493.211, 764 491.981 C 764 490.726, 760.123 488.288, 756.844 487.483 C 754.133 486.817, 753.039 484.665, 753.014 479.950 C 753 477.461, 751.403 475, 749.800 475 C 749.360 475, 748.212 475.797, 747.250 476.772 M 518.305 478.499 C 517.127 479.324, 515.209 481.544, 514.041 483.433 C 512.109 486.560, 512.043 487.166, 513.304 490.184 C 516.925 498.847, 527.143 499.734, 531.977 491.807 C 534.761 487.239, 534.513 484.654, 530.896 480.535 C 528.401 477.693, 527.073 477, 524.119 477 C 522.098 477, 519.482 477.675, 518.305 478.499 M 437.966 488.064 C 437.087 489.706, 436.261 489.997, 433.930 489.485 C 430.558 488.744, 430.499 488.978, 432.556 494.886 C 434.048 499.169, 434.022 499.361, 431.447 503.077 C 429.996 505.170, 429.104 507.359, 429.464 507.941 C 429.824 508.524, 432.132 509, 434.593 509 C 438.657 509, 439.259 509.325, 441.157 512.542 C 443.609 516.697, 445.091 516.589, 446.235 512.171 C 446.838 509.846, 448.549 507.992, 452.531 505.348 C 455.539 503.351, 458 501.309, 458 500.810 C 458 500.312, 456.784 498.858, 455.298 497.580 C 453.812 496.302, 452.075 493.736, 451.437 491.878 C 450.489 489.114, 449.823 488.548, 447.775 488.767 C 446.399 488.913, 444.706 488.351, 444.014 487.517 C 442.231 485.369, 439.265 485.637, 437.966 488.064 M 560.446 489.484 C 554.652 492.394, 549.628 496.886, 547.445 501.105 C 542.494 510.680, 546.560 529.699, 557.061 546.088 C 558.677 548.611, 560 551.150, 560 551.729 C 560 552.309, 557.188 555.819, 553.750 559.529 C 542.894 571.245, 540.542 575.996, 541.187 584.907 C 541.970 595.733, 549.703 603.262, 561.795 604.971 C 572.775 606.523, 582.510 603.159, 590.330 595.110 C 596.155 589.114, 598.576 584.359, 600.076 575.961 C 601.137 570.025, 601.065 568.150, 599.532 561.809 C 598.560 557.789, 596.917 552.830, 595.882 550.790 C 594.847 548.749, 594 546.895, 594 546.670 C 594 546.444, 596.138 545.687, 598.750 544.987 C 609.643 542.068, 623 532.206, 623 527.081 C 623 523.684, 621.114 523.747, 616.231 527.308 C 607.073 533.986, 593.107 539.746, 589.464 538.348 C 588.010 537.790, 582.341 530.570, 577.049 522.537 C 575.010 519.441, 574.103 517.144, 574.640 516.433 C 575.113 515.806, 577.177 513.090, 579.226 510.397 C 586.875 500.343, 584.615 492.144, 573.101 488.172 C 568.177 486.474, 565.988 486.701, 560.446 489.484 M 658.016 499.643 C 658.024 502.864, 658.683 508.200, 659.480 511.500 C 661.976 521.835, 661.706 522.952, 655.028 529.970 C 648.755 536.563, 647.124 539.524, 648.827 541.227 C 649.832 542.232, 659.286 542.676, 665.785 542.023 C 669.577 541.643, 673.367 544.706, 677.816 551.748 C 679.292 554.085, 680.978 555.997, 681.563 555.998 C 684.078 556.002, 688.119 550.027, 689.870 543.714 C 691.058 539.429, 693.686 534.119, 697.258 528.782 C 704.173 518.452, 706.574 513.014, 704.773 511.759 C 704.073 511.271, 698.921 511.120, 693.324 511.422 L 683.149 511.972 677.733 506.736 C 672.825 501.990, 664.248 496.126, 659.750 494.442 C 658.207 493.864, 658.002 494.479, 658.016 499.643 M 569.238 499.250 C 567.450 501.469, 566.736 506.977, 568.034 508.541 C 570.060 510.983, 571.704 510.197, 573.391 505.980 C 575.346 501.095, 575.344 501.486, 573.429 499.571 C 571.531 497.673, 570.567 497.600, 569.238 499.250 M 514.112 507.380 C 509.258 512.548, 506.369 531.973, 507.329 553 C 508.397 576.389, 512.625 583.634, 523.595 580.872 C 529.740 579.324, 530.585 577.403, 528.945 568.710 C 527.880 563.066, 527.864 558.561, 528.860 544.633 C 529.533 535.210, 530.712 524.350, 531.478 520.500 C 533.225 511.729, 532.334 510.017, 524.494 507.084 C 517.479 504.459, 516.840 504.477, 514.112 507.380 M 397.253 527.304 C 395.189 529.122, 391.209 532.258, 388.408 534.274 L 383.316 537.939 376.408 535.083 C 372.609 533.513, 367.109 531.634, 364.186 530.908 C 358.318 529.452, 356.496 530.425, 357.448 534.508 C 357.706 535.612, 358.631 540.656, 359.504 545.715 L 361.092 554.915 357.578 560.023 C 355.645 562.833, 352.666 566.897, 350.957 569.055 C 345.574 575.850, 347.660 577.721, 360.816 577.900 C 364.839 577.955, 368.953 578.440, 369.957 578.977 C 370.962 579.515, 373.861 583.498, 376.400 587.830 C 378.940 592.162, 381.914 596.517, 383.009 597.508 C 384.928 599.244, 385.074 599.243, 387.025 597.477 C 388.139 596.469, 391.264 591.022, 393.969 585.371 L 398.888 575.099 407.694 572.475 C 412.537 571.032, 417.247 569.642, 418.160 569.387 C 419.073 569.131, 420.363 568.267, 421.028 567.466 C 422.686 565.468, 420.620 562.493, 411.789 554.163 L 404.760 547.532 405.446 538.191 C 406.009 530.516, 405.848 528.417, 404.543 526.425 C 402.474 523.267, 401.737 523.356, 397.253 527.304 M 191.471 543.090 C 191.106 544.240, 191.123 548.747, 191.509 553.105 L 192.211 561.029 184.105 569.333 C 179.647 573.900, 176 578.376, 176 579.280 C 176 580.886, 178.430 581.825, 187 583.533 C 191.975 584.525, 192.893 585.529, 197.066 594.540 C 199.114 598.962, 201.579 603.236, 202.545 604.037 C 204.138 605.360, 204.677 605.043, 208.400 600.603 C 218.952 588.017, 217.319 589.010, 228.500 588.377 C 234 588.066, 238.882 587.449, 239.349 587.006 C 240.767 585.662, 239.150 582.401, 233.330 574.868 L 227.776 567.681 229.529 560.090 C 230.493 555.916, 231.460 552.179, 231.677 551.786 C 231.895 551.394, 231.181 550.181, 230.091 549.091 C 227.842 546.842, 225.705 547.179, 217.873 551.013 C 211.961 553.908, 210.195 553.423, 201.572 546.535 C 197.761 543.491, 194.079 541, 193.389 541 C 192.699 541, 191.836 541.941, 191.471 543.090 M 559.806 565.972 C 557.414 568.706, 553.970 573.397, 552.153 576.396 C 548.371 582.636, 548.745 584.654, 554.314 588.050 C 560.236 591.661, 565.349 590.407, 569.037 584.441 C 570.768 581.639, 571.126 579.936, 570.675 576.645 C 569.998 571.705, 566.073 561, 564.939 561 C 564.508 561, 562.198 563.237, 559.806 565.972 M 710.129 589.623 C 691.766 598.773, 697.609 625, 718.010 625 C 724.124 625, 727.611 623.346, 731.977 618.374 C 738.454 610.997, 739.225 605.281, 734.889 596.783 C 730.113 587.420, 720.264 584.572, 710.129 589.623 M 801.500 635.108 C 782.672 638.907, 765.122 655.943, 757.831 677.500 C 751.765 695.432, 749.408 723.795, 752.464 742.078 C 757.410 771.675, 770.028 787.069, 793.697 792.384 C 808.228 795.647, 820.309 793.932, 835.829 786.404 C 843.692 782.590, 846.613 780.433, 854.406 772.689 C 868.539 758.644, 882.771 736.012, 893.902 709.879 C 896.156 704.587, 898 699.593, 898 698.780 C 898 697.968, 896.133 696.462, 893.851 695.433 L 889.703 693.562 888.101 695.920 C 887.221 697.216, 883.206 703.953, 879.181 710.889 C 866.666 732.453, 853.628 747.721, 839.074 757.856 C 823.742 768.532, 811.822 768.721, 803.382 758.421 C 797.366 751.080, 795.767 745.397, 795.244 729.500 C 794.063 693.607, 806.207 660.969, 822.035 657.492 C 828.508 656.071, 830.021 658.112, 832.566 671.710 C 834.563 682.378, 835.943 685.238, 840.053 687.229 C 843.867 689.076, 846.074 688.615, 849.164 685.325 C 851.360 682.988, 851.500 682.074, 851.500 670.082 L 851.500 657.325 847.865 651.413 C 841.040 640.312, 830.915 635, 815.500 634.431 C 810.550 634.249, 804.250 634.553, 801.500 635.108 M 203.543 641.366 C 199.354 645.555, 197.260 651.220, 194.617 665.510 C 190.692 686.729, 189.946 695.091, 189.312 725 C 188.691 754.341, 189.453 764.780, 193.073 776.500 C 195.812 785.368, 199.620 788.300, 209.096 788.836 C 214.557 789.144, 216.790 788.796, 220.324 787.085 C 227.726 783.502, 227.615 783.856, 228.835 760 C 230.009 737.062, 231.739 727.408, 237.820 709.856 C 241.475 699.308, 243.827 694.619, 250.623 684.331 C 256.438 675.528, 261.695 670.295, 263.207 671.807 C 264.510 673.110, 264.642 688.476, 263.603 718 C 262.390 752.493, 264.454 770.320, 270.296 775.809 C 278.538 783.552, 296.710 782.405, 301.991 773.808 C 304.425 769.845, 306.052 764.589, 309.979 748 C 316.328 721.176, 326.677 696.791, 335.548 687.750 C 337.572 685.688, 339.627 684, 340.114 684 C 341.361 684, 341.222 688.736, 339.321 711 C 338.240 723.670, 337.650 741.182, 337.638 761 C 337.621 788.155, 337.862 792.847, 339.831 803.783 C 345.368 834.537, 356.249 848.143, 377.271 850.598 C 385.216 851.526, 398.880 847.110, 403.348 842.169 C 405.714 839.553, 405.019 838.541, 398.679 835.378 C 388.663 830.380, 382.748 822.631, 379.634 810.429 C 376.757 799.153, 376.023 785.100, 376.053 741.890 C 376.089 692.401, 375.133 680.280, 370.463 671 C 366.121 662.373, 361.809 660, 350.472 660 C 332.890 660, 316.711 672.184, 306.829 692.866 C 304.456 697.833, 302.466 700.866, 301.931 700.331 C 301.435 699.835, 300.581 694.945, 300.034 689.465 C 297.874 667.866, 292.437 656.113, 282.136 650.778 C 275.091 647.130, 264.994 646.876, 258.066 650.173 C 251.587 653.256, 240.500 665, 233.631 676.054 C 229.397 682.867, 227.917 684.645, 228.319 682.433 C 230.166 672.277, 231.177 660.656, 230.768 654.282 C 230.385 648.326, 229.845 646.455, 227.898 644.344 C 224.403 640.553, 219.925 639, 212.487 639 C 206.903 639, 205.551 639.358, 203.543 641.366 M 610.500 643.876 C 586.046 650.942, 568.090 670.531, 554.578 704.887 C 552.548 710.049, 549.269 716.799, 547.292 719.887 C 545.315 722.974, 540.567 731.575, 536.741 739 C 523.454 764.782, 517.213 774.546, 515.264 772.598 C 512.965 770.298, 516.287 731.395, 523.107 680.749 C 525.098 665.962, 525.126 664.841, 523.560 662.451 C 521.345 659.071, 516.758 656.377, 511.893 655.599 C 507.531 654.901, 504.982 655.863, 500.767 659.793 L 498.034 662.342 494.522 658.726 C 488.862 652.898, 484.971 650.393, 477 647.449 C 470.580 645.077, 467.914 644.665, 458.486 644.589 C 447.886 644.503, 447.212 644.628, 440.518 647.920 C 417.691 659.146, 401 693.738, 401 729.819 C 401 750.544, 405.105 764.531, 413.854 773.617 C 429.471 789.835, 460.091 783.856, 473.614 761.946 C 475.633 758.676, 477.670 756, 478.142 756 C 478.614 756, 479 757.760, 479 759.912 C 479 765.240, 481.429 777.518, 483.567 783 C 485.907 788.999, 491.584 796.741, 494.857 798.396 C 505.207 803.631, 518.255 798.879, 527.523 786.500 C 532.464 779.900, 545.037 752.977, 548.304 742 C 549.273 738.744, 549.435 739.233, 550.623 749 C 553.198 770.171, 557.130 777.866, 568.410 783.811 C 572.823 786.138, 574.630 786.485, 582 786.424 C 588.507 786.370, 591.672 785.832, 595.500 784.130 C 607.423 778.828, 612.384 773.209, 622.541 753.500 C 626.226 746.350, 629.456 740.275, 629.719 740 C 630.336 739.355, 629.473 748.829, 626.753 772.558 L 624.569 791.616 616.535 792.717 C 597.319 795.350, 574.920 807.283, 561.804 821.874 C 547.484 837.804, 544.853 860.815, 555.715 875.130 C 559.948 880.709, 564.554 883.447, 573.091 885.460 C 596.818 891.053, 622.368 879.718, 641.990 854.894 C 659.969 832.149, 670.315 781.183, 668.545 724.087 C 667.956 705.113, 667.537 700.838, 665.811 696.226 C 662.851 688.313, 659.616 685.197, 653.114 683.995 C 636.137 680.859, 634.613 682.373, 617.527 719.370 C 604.917 746.675, 596.226 761, 592.269 761 C 591.509 761, 589.924 758.862, 588.746 756.250 C 584.883 747.681, 586.680 724.747, 592.722 705.500 C 595.892 695.401, 598.636 689.983, 604.210 682.812 C 613.072 671.413, 623.743 665, 633.849 665 C 639.423 665, 641.039 666.222, 646.923 674.886 C 649.113 678.111, 651.642 681.032, 652.543 681.378 C 656.522 682.905, 663.185 677.330, 665.017 670.941 C 666.985 664.079, 660.677 653.804, 651.231 648.486 C 640.387 642.380, 622.632 640.371, 610.500 643.876 M 705.438 643.358 C 699.432 647.703, 696.021 657.141, 692.374 679.500 C 690.975 688.081, 690.571 696.439, 690.540 717.500 C 690.504 741.989, 690.713 745.476, 692.786 755 C 697.173 775.145, 703.246 782.500, 715.493 782.500 C 721.072 782.500, 722.266 782.135, 725.657 779.396 C 730.856 775.197, 731.680 772.474, 729.923 765.306 C 727.699 756.231, 728.192 716.601, 730.854 690.500 C 733.745 662.144, 733.695 655.862, 730.534 650.468 C 729.018 647.880, 726.611 645.555, 724.284 644.428 C 719.233 641.983, 708.205 641.357, 705.438 643.358 M 466.500 670.302 C 453.876 676.367, 446.264 688.998, 440.492 713.456 C 437.476 726.234, 436.610 736.694, 437.860 745.235 C 438.886 752.254, 442.513 760.876, 444.809 761.757 C 445.542 762.038, 447.952 760.520, 450.165 758.384 C 458.111 750.714, 467.726 735.257, 476.046 716.779 C 479.253 709.657, 485.929 687.337, 488.723 674.394 C 489.093 672.682, 488.377 671.968, 484.893 670.574 C 477.603 667.657, 472.173 667.577, 466.500 670.302 M 611.997 806.921 C 583.574 816.549, 567.629 830.079, 564.468 847.250 C 562.510 857.888, 570.694 868.022, 581.218 867.990 C 586.164 867.976, 594.398 863.683, 600.440 857.969 C 609.627 849.279, 618.865 827.530, 620.613 810.476 C 620.978 806.914, 621.102 804.009, 620.888 804.021 C 620.675 804.032, 616.674 805.337, 611.997 806.921" stroke="none" fill="#fbfbfb" fill-rule="evenodd"/></svg>